<svg width="64" height="64" viewBox="0 0 64 64" fill="none" xmlns="http://www.w3.org/2000/svg">
<g clip-path="url(#clip0_150_18)">
<rect width="64" height="64" rx="32" fill="white"/>
<rect width="199" height="75" transform="translate(-67 -5.5)" fill="#F8F4E1"/>
<path d="M47.2891 46.5H36.7188C36.1719 46.5 35.8984 46.1797 35.8984 45.5391C35.8984 44.9922 36.125 44.7188 36.5781 44.7188C37.1875 44.7188 37.4922 44.6016 37.4922 44.3672C37.4922 44.1328 37.3125 43.7578 36.9531 43.2422C35.8594 41.5547 34.4688 39.2969 32.7812 36.4688C31.0938 33.6406 29.7031 31.3828 28.6094 29.6953V42.7266C28.7188 43.2734 28.8906 43.7031 29.125 44.0156C29.3594 44.3125 29.6719 44.5625 30.0625 44.7656C30.375 44.9531 30.5312 45.2344 30.5312 45.6094C30.5312 46.1875 30.2109 46.4766 29.5703 46.4766L24.625 46.5L19.6797 46.4766C19.0234 46.4766 18.6953 46.2031 18.6953 45.6562C18.6953 45.25 18.8594 44.9531 19.1875 44.7656C19.5781 44.5625 19.8906 44.3125 20.125 44.0156C20.3594 43.7031 20.5312 43.2734 20.6406 42.7266V18.4688C20.5312 17.9219 20.3594 17.5 20.125 17.2031C19.8906 16.8906 19.5781 16.6328 19.1875 16.4297C18.8594 16.2422 18.6953 15.9453 18.6953 15.5391C18.6953 14.9922 19.0234 14.7188 19.6797 14.7188L24.625 14.6953L29.5703 14.7188C30.2109 14.7188 30.5312 15.0078 30.5312 15.5859C30.5312 15.9609 30.375 16.2422 30.0625 16.4297C29.6719 16.6328 29.3594 16.8906 29.125 17.2031C28.8906 17.5 28.7188 17.9219 28.6094 18.4688V27.8906L40.5859 15.7734C41.3203 15.0547 42.1484 14.6953 43.0703 14.6953C43.8828 14.6953 44.6172 14.9531 45.2734 15.4688C45.9297 15.9844 46.2578 16.75 46.2578 17.7656C46.2578 18.6406 45.9297 19.3906 45.2734 20.0156C44.6328 20.625 43.8984 20.9297 43.0703 20.9297C42.2891 20.9297 41.4531 20.7812 40.5625 20.4844C40.1094 20.2812 39.6562 20.1797 39.2031 20.1797C38.3438 20.1797 37.4141 20.7266 36.4141 21.8203L33.5078 24.75C35.0547 27.2031 36.8281 30.0859 38.8281 33.3984C41.0469 37.0703 42.9688 40.1797 44.5938 42.7266C45.0938 43.4922 45.5469 44.0234 45.9531 44.3203C46.375 44.6172 46.8438 44.7656 47.3594 44.7656C47.7031 44.7656 47.9375 44.9141 48.0625 45.2109C48.125 45.3672 48.1562 45.5156 48.1562 45.6562C48.1562 46.2188 47.8672 46.5 47.2891 46.5Z" fill="#543310"/>
</g>
<defs>
<clipPath id="clip0_150_18">
<rect width="64" height="64" rx="32" fill="white"/>
</clipPath>
</defs>
</svg>
